<svg width="475" height="602" viewBox="0 0 475 602" fill="none" xmlns="http://www.w3.org/2000/svg">
<g style="mix-blend-mode:luminosity">
<path d="M0.340393 82.693C-0.45018 78.9087 1.97671 75.2001 5.76101 74.4095L359.132 0.587082C362.917 -0.203491 366.625 2.2234 367.416 6.0077L474.571 518.934C475.361 522.719 472.934 526.427 469.15 527.218L115.779 601.04C111.995 601.831 108.286 599.404 107.495 595.62L0.340393 82.693Z" fill="#C4C4C4" fill-opacity="0.4"/>
<path d="M18.7191 61.3973C18.2207 57.5636 20.9244 54.0517 24.7581 53.5532L382.745 7.00779C386.579 6.50933 390.091 9.2131 390.589 13.0468L458.151 532.673C458.649 536.507 455.945 540.019 452.112 540.517L94.125 587.063C90.2913 587.561 86.7793 584.857 86.2809 581.024L18.7191 61.3973Z" fill="#C4C4C4" fill-opacity="0.29"/>
<path d="M37.4626 45.2211C37.26 41.3604 40.2255 38.0665 44.0861 37.8639L404.59 18.9459C408.451 18.7433 411.745 21.7087 411.947 25.5694L439.407 548.849C439.61 552.71 436.644 556.004 432.784 556.207L72.2798 575.125C68.4191 575.327 65.1252 572.362 64.9226 568.501L37.4626 45.2211Z" fill="#F9F9F9" fill-opacity="0.79"/>
<path d="M123.459 99.9441C118.746 100.191 115.185 99.116 112.776 96.7188C110.367 94.3216 109.03 90.5864 108.764 85.5134C108.496 80.4004 109.55 76.4398 111.927 73.6316C114.341 70.7813 117.925 69.2317 122.678 68.9825C127.431 68.7334 131.009 69.7476 133.412 72.0249C135.854 74.3002 137.21 77.9944 137.478 83.1074C137.743 88.1804 136.652 92.203 134.205 95.1752C131.795 98.1053 128.213 99.695 123.459 99.9441ZM117.364 84.522C117.699 90.9132 119.784 94.0083 123.619 93.8073C125.576 93.7048 126.976 92.9104 127.82 91.4242C128.701 89.896 129.055 87.4742 128.881 84.1587C128.554 77.9273 126.434 74.9141 122.519 75.1193C120.602 75.2198 119.22 75.9931 118.375 77.4394C117.527 78.8456 117.19 81.2065 117.364 84.522Z" fill="#69D1C5"/>
<path d="M139.736 68.5692C141.908 67.9747 143.873 67.6314 145.63 67.5393C147.388 67.4472 148.848 67.4108 150.011 67.4299L150.164 70.3659C152.742 68.3482 155.549 67.2598 158.585 67.1007C162.58 66.8914 165.535 67.8781 167.452 70.0607C169.369 72.2434 170.467 75.9911 170.745 81.3038C170.894 84.1399 170.605 86.6585 169.879 88.8595C169.154 91.0605 168.103 92.7978 166.728 94.0715C164.097 96.6127 160.885 97.9827 157.09 98.1816C155.452 98.2674 153.886 98.1893 152.391 97.9472L152.661 103.1C155.051 103.616 156.608 104.275 157.331 105.078L156.974 109.723L141.934 110.512L141.093 105.929C141.575 105.183 142.638 104.447 144.282 103.719L142.781 75.0788C141.358 74.6727 140.224 74.0512 139.379 73.2143L139.736 68.5692ZM156.17 92.1014C158.168 91.9967 159.699 91.0352 160.766 89.2169C161.83 87.3587 162.28 84.8717 162.117 81.756C161.952 78.6003 161.519 76.46 160.819 75.3351C160.119 74.2102 158.931 73.6917 157.253 73.7796C154.696 73.9136 152.691 74.6195 151.235 75.8974L152.071 91.8356C153.326 92.0902 154.692 92.1788 156.17 92.1014Z" fill="#69D1C5"/>
<path d="M189.066 96.5058C184.272 96.757 180.59 95.6682 178.02 93.2394C175.489 90.8085 174.096 87.1564 173.84 82.2831C173.686 79.3272 173.972 76.7687 174.7 74.6076C175.426 72.4066 176.477 70.6892 177.855 69.4555C180.534 67.072 183.73 65.7829 187.445 65.5882C191.16 65.3935 194.047 66.2036 196.104 68.0184C198.2 69.7911 199.377 73.1341 199.634 78.0474C199.785 80.9234 198.442 82.4358 195.606 82.5844L182.604 83.2658C182.896 85.774 183.628 87.5181 184.801 88.498C186.014 89.4759 187.858 89.8999 190.335 89.7701C191.693 89.699 192.983 89.4712 194.204 89.0867C195.426 88.7022 196.308 88.3356 196.85 87.9867L197.664 87.4634L199.713 92.1626C199.488 92.4548 199.147 92.8331 198.691 93.2977C198.273 93.7201 197.143 94.3401 195.304 95.1575C193.502 95.9329 191.422 96.3823 189.066 96.5058ZM191.851 77.4339C191.902 76.8705 191.906 76.1893 191.864 75.3904C191.823 74.5915 191.459 73.7694 190.774 72.9241C190.087 72.0388 188.944 71.6381 187.346 71.7218C185.788 71.8035 184.615 72.3456 183.827 73.3483C183.038 74.3509 182.563 75.998 182.403 78.2895L191.851 77.4339Z" fill="#69D1C5"/>
<path d="M202.654 65.2719C204.825 64.6774 206.79 64.3341 208.548 64.242C210.305 64.1499 211.765 64.1134 212.928 64.1326L213.085 67.1285C214.04 66.2373 215.322 65.4891 216.933 64.884C218.581 64.2369 220.164 63.8735 221.682 63.7939C225.597 63.5888 228.381 64.3641 230.035 66.12C231.73 67.8737 232.695 71.0075 232.931 75.5213L233.534 87.0255C235.124 87.543 236.258 88.1645 236.937 88.89L236.579 93.5351L222.798 94.2573L221.957 89.675C222.477 88.8868 223.54 88.1501 225.146 87.4651L224.524 75.6014C224.411 73.4444 223.976 72.0252 223.22 71.3438C222.501 70.6205 221.242 70.3059 219.445 70.4001C217.647 70.4943 215.883 71.2276 214.153 72.6001L214.96 87.9989C216.549 88.5165 217.683 89.138 218.362 89.8634L218.005 94.5085L204.224 95.2308L203.383 90.6485C203.902 89.8602 204.965 89.1236 206.571 88.4386L205.698 71.7814C204.275 71.3754 203.141 70.7539 202.296 69.9169L202.654 65.2719Z" fill="#69D1C5"/>
<path d="M266.066 49.3312C268.316 48.6926 270.479 48.3189 272.557 48.21C274.634 48.1012 276.414 48.0679 277.899 48.1103L279.783 84.061C280.992 84.1979 282.108 84.4799 283.132 84.9069L283.38 89.6404C281.05 91.0442 278.048 91.8425 274.373 92.035C273.963 91.8563 273.544 91.5177 273.118 91.0193C272.731 90.5189 272.505 90.03 272.44 89.5528C271.599 90.3179 270.493 90.9967 269.122 91.5892C267.749 92.1418 266.384 92.4537 265.025 92.5249C260.711 92.751 257.515 91.7569 255.436 89.5427C253.395 87.2864 252.236 83.5019 251.957 78.1892C251.641 72.1575 252.897 67.8458 255.726 65.2543C258.209 62.9612 261.348 61.7152 265.143 61.5163C266.821 61.4284 268.509 61.5402 270.207 61.8517L269.896 55.9198C268.032 55.4968 266.636 54.849 265.709 53.9763L266.066 49.3312ZM265.963 86.3474C268.24 86.228 270.042 85.4527 271.369 84.0213L270.528 67.9633C268.869 67.6497 267.121 67.541 265.283 67.6373C263.446 67.7336 262.151 68.6226 261.398 70.3043C260.682 71.944 260.41 74.3816 260.579 77.6172C260.747 80.8128 261.267 83.0887 262.139 84.4449C263.011 85.8011 264.286 86.4353 265.963 86.3474Z" fill="#69D1C5"/>
<path d="M299.819 90.7015C295.105 90.9485 291.544 89.8734 289.136 87.4762C286.727 85.079 285.389 81.3438 285.124 76.2708C284.856 71.1578 285.91 67.1972 288.286 64.389C290.7 61.5387 294.284 59.9891 299.038 59.7399C303.791 59.4908 307.369 60.5049 309.771 62.7823C312.214 65.0576 313.569 68.7518 313.837 73.8647C314.103 78.9378 313.012 82.9604 310.564 85.9326C308.154 88.8627 304.572 90.4524 299.819 90.7015ZM293.724 75.2793C294.058 81.6706 296.143 84.7657 299.978 84.5647C301.935 84.4622 303.336 83.6678 304.179 82.1816C305.06 80.6534 305.414 78.2316 305.24 74.9161C304.914 68.6847 302.793 65.6715 298.878 65.8767C296.961 65.9772 295.58 66.7505 294.734 68.1967C293.887 69.603 293.55 71.9639 293.724 75.2793Z" fill="#69D1C5"/>
<path d="M330.531 64.2178C326.856 64.4104 325.184 67.6624 325.515 73.9737C325.683 77.1693 326.299 79.3801 327.365 80.606C328.468 81.7899 329.979 82.3316 331.896 82.2311C334.932 82.072 337.594 81.6521 339.881 80.9714L341.92 85.4909C340.686 86.3967 339.006 87.2058 336.881 87.918C334.753 88.5903 332.67 88.9798 330.633 89.0866C322.005 89.5388 317.429 84.7717 316.906 74.7854C316.6 68.9534 317.878 64.6807 320.74 61.9672C323.299 59.59 326.496 58.3009 330.331 58.0999C334.166 57.8989 337.399 58.4505 340.031 59.7545C340.092 60.1519 340.132 60.5303 340.15 60.8898C340.27 63.1667 339.864 65.351 338.932 67.4426L333.659 67.7189C333.047 66.7496 332.645 65.569 332.452 64.1772C331.971 64.1624 331.33 64.1759 330.531 64.2178Z" fill="#69D1C5"/>
</g>
</svg>
